<svg width="153" height="30" viewBox="0 0 153 30" fill="none" xmlns="http://www.w3.org/2000/svg">
<g id="logo-white (1) 1" clip-path="url(#clip0_1540_949)">
<g id="Group 871">
<path id="Path 61" d="M55.3815 22.7089H55.2309C55.0326 22.7041 54.8438 22.6242 54.7036 22.4857C54.5634 22.3472 54.4824 22.1607 54.4776 21.9649V20.7755C53.9964 21.4744 53.3433 22.0412 52.5797 22.4227C51.816 22.8042 50.9668 22.9879 50.1116 22.9566C49.3232 22.9723 48.5399 22.8281 47.8103 22.5328C47.0806 22.2376 46.42 21.7975 45.8695 21.24C45.3189 20.6824 44.89 20.0191 44.6094 19.2913C44.3288 18.5634 44.2024 17.7864 44.2381 17.0084C44.2032 16.2328 44.3305 15.4585 44.612 14.7336C44.8935 14.0088 45.3232 13.3491 45.8743 12.7956C46.4254 12.242 47.0861 11.8066 47.8151 11.5165C48.5442 11.2263 49.3259 11.0876 50.1116 11.1091C50.9611 11.0795 51.8047 11.2588 52.5668 11.6308C53.3288 12.0028 53.9854 12.5558 54.4776 13.2403V12.1008C54.4824 11.905 54.5634 11.7185 54.7036 11.58C54.8438 11.4415 55.0326 11.3616 55.2309 11.3568H55.3815C55.5798 11.3616 55.7686 11.4415 55.9088 11.58C56.049 11.7185 56.1299 11.905 56.1348 12.1008V21.9649C56.1367 22.0631 56.1186 22.1606 56.0815 22.2517C56.0444 22.3427 55.989 22.4255 55.9188 22.4949C55.8486 22.5644 55.7649 22.6191 55.6727 22.6559C55.5806 22.6927 55.4809 22.7107 55.3815 22.7089ZM50.1621 21.3207C50.7433 21.3501 51.3243 21.2586 51.8674 21.0523C52.4106 20.846 52.9039 20.5293 53.3154 20.1229C53.7269 19.7164 54.0475 19.2292 54.2564 18.6927C54.4653 18.1562 54.5579 17.5824 54.5281 17.0084C54.5367 16.442 54.4292 15.8798 54.2122 15.3555C53.9952 14.8312 53.6731 14.3556 53.2653 13.9574C52.8575 13.5591 52.3723 13.2465 51.8391 13.0381C51.3058 12.8298 50.7354 12.73 50.1621 12.745C49.5912 12.7213 49.0216 12.8158 48.4898 13.0223C47.958 13.2289 47.4758 13.543 47.0741 13.9444C46.6725 14.3459 46.3602 14.8258 46.1573 15.3534C45.9545 15.8811 45.8655 16.4448 45.8962 17.0084C45.8729 17.5724 45.9664 18.1352 46.1712 18.6622C46.376 19.1892 46.6876 19.6694 47.087 20.0732C47.4863 20.477 47.965 20.7959 48.4936 21.0105C49.0223 21.225 49.5907 21.3306 50.1621 21.3207Z" fill="#00377A"/>
<path id="Path 62" d="M69.5342 13.0427L61.9558 21.1231H68.9821C69.1804 21.1277 69.3694 21.2075 69.5096 21.3461C69.6499 21.4846 69.7308 21.6712 69.7354 21.8671V21.966C69.7305 22.1618 69.6496 22.3483 69.5094 22.4868C69.3692 22.6253 69.1804 22.7052 68.9821 22.71H60.496C60.2979 22.7052 60.1093 22.6254 59.9691 22.4871C59.8289 22.3488 59.7479 22.1626 59.7428 21.9669V21.5205C59.738 21.4285 59.7535 21.3366 59.7883 21.251C59.823 21.1655 59.8761 21.0884 59.944 21.0252L67.3717 12.9448H60.8994C60.7011 12.94 60.5123 12.8601 60.3721 12.7216C60.2319 12.5831 60.1509 12.3966 60.1461 12.2008V12.1009C60.1509 11.9051 60.2319 11.7186 60.3721 11.5801C60.5123 11.4416 60.7011 11.3617 60.8994 11.3569H68.9297C69.1279 11.3617 69.3167 11.4416 69.4569 11.5801C69.5972 11.7186 69.6781 11.9051 69.6829 12.1009V12.4974C69.7093 12.5932 69.7095 12.6941 69.6833 12.79C69.6572 12.8858 69.6057 12.973 69.5342 13.0427Z" fill="#00377A"/>
<path id="Path 63" d="M72.6464 17.0085C72.6017 16.2349 72.7205 15.4605 72.9952 14.7347C73.27 14.0089 73.6947 13.3475 74.2423 12.7926C74.7899 12.2378 75.4484 11.8015 76.176 11.5117C76.9036 11.2219 77.6843 11.0848 78.4684 11.1092C81.7303 11.1092 84.1398 13.3892 84.1398 17.0085C84.1349 17.2043 84.054 17.3908 83.9138 17.5293C83.7736 17.6678 83.5848 17.7477 83.3865 17.7525H74.3522C74.4441 18.7683 74.9277 19.7105 75.7031 20.3841C76.4784 21.0577 77.4862 21.4113 78.518 21.3717C79.1653 21.387 79.8071 21.2514 80.3914 20.9759C80.9757 20.7003 81.4861 20.2926 81.881 19.7858C81.9644 19.6701 82.0798 19.5805 82.2134 19.5278C82.3469 19.475 82.493 19.4612 82.6342 19.4882L82.7849 19.5381C82.9776 19.5897 83.1449 19.7086 83.2558 19.8728C83.3666 20.037 83.4134 20.2352 83.3875 20.4309C83.3772 20.5362 83.3429 20.638 83.2874 20.7285C82.743 21.4536 82.0304 22.0391 81.2095 22.4358C80.3885 22.8326 79.4832 23.029 78.5695 23.0085C77.7733 23.0279 76.9817 22.8848 76.2442 22.5881C75.5066 22.2915 74.8389 21.8477 74.283 21.2845C73.727 20.7213 73.2947 20.0509 73.0131 19.3151C72.7315 18.5793 72.6067 17.7941 72.6464 17.0085ZM82.433 16.2645C82.3656 15.2837 81.9137 14.3675 81.1735 13.7104C80.4333 13.0533 79.4629 12.707 78.4684 12.7451C77.4559 12.7175 76.4692 13.0623 75.6995 13.7126C74.9298 14.3628 74.432 15.2723 74.3026 16.2645H82.433Z" fill="#00377A"/>
<path id="Path 64" d="M94.5291 12.1995C94.5171 12.2976 94.4853 12.3924 94.4356 12.4782C94.3859 12.564 94.3194 12.6391 94.2399 12.6991C94.1603 12.7591 94.0695 12.8029 93.9726 12.8277C93.8757 12.8525 93.7748 12.8579 93.6758 12.8436H93.5757C93.2942 12.7891 93.0089 12.756 92.7223 12.7447C90.3633 12.7447 89.4099 15.4759 89.4099 18.4952V21.9656C89.405 22.1615 89.3241 22.3479 89.1839 22.4864C89.0436 22.6249 88.8549 22.7049 88.6566 22.7096H88.5059C88.3077 22.7049 88.1189 22.6249 87.9787 22.4864C87.8384 22.3479 87.7575 22.1615 87.7527 21.9656V12.1006C87.7575 11.9048 87.8384 11.7183 87.9787 11.5798C88.1189 11.4413 88.3077 11.3614 88.5059 11.3566H88.6566C88.8549 11.3614 89.0436 11.4413 89.1839 11.5798C89.3241 11.7183 89.405 11.9048 89.4099 12.1006V13.9342C89.9619 12.0007 91.0155 11.1089 92.7223 11.1089C93.145 11.1094 93.5662 11.1594 93.9771 11.2577C94.1483 11.3055 94.2972 11.411 94.398 11.5558C94.4988 11.7006 94.5452 11.8756 94.5291 12.0507V12.1995Z" fill="#00377A"/>
<path id="Path 65" d="M98.5443 5.95283C98.7804 5.96243 99.0084 6.04035 99.2 6.17689C99.3916 6.31343 99.5383 6.50258 99.6219 6.72082C99.7056 6.93906 99.7224 7.17676 99.6704 7.40438C99.6184 7.63201 99.4997 7.8395 99.3293 8.00108C99.1588 8.16266 98.9441 8.27119 98.7117 8.31319C98.4793 8.35519 98.2395 8.32879 98.0222 8.23729C97.8048 8.14578 97.6195 7.99321 97.4893 7.79852C97.359 7.60384 97.2896 7.37564 97.2896 7.14229C97.289 6.98168 97.3215 6.82264 97.385 6.67479C97.4485 6.52694 97.5417 6.39336 97.6591 6.28215C97.7764 6.17094 97.9153 6.08442 98.0675 6.02781C98.2197 5.9712 98.3819 5.94569 98.5443 5.95283ZM98.5949 22.7088H98.4948C98.2965 22.7041 98.1077 22.6241 97.9675 22.4856C97.8273 22.3471 97.7463 22.1607 97.7415 21.9648V12.1007C97.7463 11.9049 97.8273 11.7184 97.9675 11.5799C98.1077 11.4414 98.2965 11.3615 98.4948 11.3567H98.5949C98.7931 11.3615 98.9819 11.4414 99.1222 11.5799C99.2624 11.7184 99.3433 11.9049 99.3481 12.1007V21.963C99.3501 22.0612 99.3319 22.1588 99.2948 22.2499C99.2576 22.3411 99.2022 22.4239 99.1318 22.4933C99.0615 22.5628 98.9777 22.6175 98.8854 22.6542C98.7932 22.691 98.6943 22.7089 98.5949 22.707V22.7088Z" fill="#00377A"/>
<path id="Path 66" d="M112.748 20.8244C112.893 20.9699 112.974 21.1657 112.974 21.3697C112.974 21.5737 112.893 21.7695 112.748 21.915C112.698 21.9649 112.648 22.0138 112.598 22.0138C111.58 22.6609 110.396 23.0051 109.185 23.0055C108.389 23.0244 107.597 22.8834 106.858 22.5911C106.119 22.2987 105.447 21.8612 104.884 21.305C104.321 20.7488 103.878 20.0854 103.582 19.3551C103.286 18.6248 103.143 17.8428 103.162 17.0564C103.144 16.2726 103.288 15.4934 103.585 14.7663C103.881 14.0393 104.325 13.3796 104.889 12.8275C105.452 12.2755 106.124 11.8426 106.862 11.5554C107.601 11.2682 108.391 11.1327 109.184 11.1571C110.386 11.1707 111.562 11.4954 112.597 12.0989C112.765 12.2083 112.884 12.3769 112.931 12.5702C112.977 12.7635 112.948 12.9671 112.848 13.1395C112.797 13.1894 112.797 13.2384 112.748 13.2883L112.647 13.3872C112.524 13.5089 112.362 13.5851 112.188 13.6031C112.015 13.6211 111.84 13.5798 111.694 13.4861C110.937 13.033 110.07 12.793 109.185 12.792C108.603 12.7661 108.021 12.8595 107.476 13.0664C106.932 13.2733 106.437 13.5892 106.022 13.9942C105.607 14.3992 105.282 14.8846 105.066 15.4198C104.85 15.9551 104.749 16.5286 104.769 17.1044C104.748 17.6827 104.848 18.259 105.063 18.7974C105.278 19.3358 105.602 19.8249 106.017 20.2341C106.431 20.6432 106.926 20.9638 107.471 21.1759C108.016 21.3879 108.6 21.4869 109.185 21.4667C110.07 21.4657 110.937 21.2257 111.694 20.7726C111.84 20.6789 112.015 20.6376 112.188 20.6556C112.362 20.6736 112.524 20.7498 112.647 20.8715L112.748 20.8244Z" fill="#00377A"/>
<path id="Path 67" d="M126.953 22.7089H126.802C126.604 22.7041 126.415 22.6242 126.275 22.4857C126.134 22.3472 126.054 22.1607 126.049 21.9649V20.7755C125.567 21.4744 124.914 22.0412 124.151 22.4227C123.387 22.8042 122.538 22.9879 121.683 22.9566C120.894 22.9722 120.111 22.8279 119.381 22.5325C118.652 22.2371 117.991 21.7969 117.441 21.2393C116.89 20.6816 116.462 20.0183 116.181 19.2904C115.901 18.5625 115.774 17.7855 115.81 17.0074C115.775 16.232 115.903 15.4579 116.184 14.7332C116.466 14.0086 116.895 13.349 117.446 12.7956C117.997 12.2422 118.658 11.8068 119.387 11.5167C120.116 11.2265 120.897 11.0878 121.683 11.1091C122.532 11.0795 123.376 11.2588 124.138 11.6308C124.9 12.0028 125.557 12.5558 126.049 13.2403V12.1008C126.054 11.905 126.134 11.7185 126.275 11.58C126.415 11.4415 126.604 11.3616 126.802 11.3568H126.953C127.151 11.3616 127.34 11.4415 127.48 11.58C127.62 11.7185 127.701 11.905 127.706 12.1008V21.9649C127.712 22.0642 127.697 22.1636 127.661 22.2566C127.625 22.3496 127.57 22.4341 127.499 22.5044C127.428 22.5748 127.342 22.6294 127.248 22.6646C127.154 22.6999 127.053 22.715 126.953 22.7089ZM121.733 21.3207C122.314 21.3501 122.895 21.2586 123.439 21.0523C123.982 20.846 124.475 20.5293 124.886 20.1229C125.298 19.7164 125.619 19.2292 125.827 18.6927C126.036 18.1562 126.129 17.5824 126.099 17.0084C126.108 16.442 126 15.8798 125.783 15.3555C125.566 14.8312 125.244 14.3556 124.836 13.9574C124.429 13.5591 123.943 13.2465 123.41 13.0381C122.877 12.8298 122.306 12.73 121.733 12.745C121.162 12.7213 120.593 12.8158 120.061 13.0223C119.529 13.2289 119.047 13.543 118.645 13.9444C118.244 14.3459 117.931 14.8258 117.728 15.3534C117.526 15.8811 117.437 16.4448 117.467 17.0084C117.444 17.5724 117.538 18.1352 117.742 18.6622C117.947 19.1892 118.259 19.6694 118.658 20.0732C119.057 20.477 119.536 20.7959 120.065 21.0105C120.593 21.225 121.162 21.3306 121.733 21.3207Z" fill="#00377A"/>
<path id="Path 68" d="M139.098 12.1995C139.086 12.2976 139.054 12.3924 139.005 12.4782C138.955 12.564 138.888 12.6391 138.809 12.6991C138.729 12.7591 138.639 12.8029 138.542 12.8277C138.445 12.8525 138.344 12.8579 138.245 12.8436H138.145C137.863 12.7891 137.578 12.756 137.291 12.7447C134.932 12.7447 133.979 15.4759 133.979 18.4952V21.9656C133.974 22.1615 133.893 22.3479 133.753 22.4864C133.613 22.6249 133.424 22.7049 133.226 22.7096H133.075C132.877 22.7049 132.688 22.6249 132.548 22.4864C132.408 22.3479 132.327 22.1615 132.322 21.9656V12.1006C132.327 11.9048 132.408 11.7183 132.548 11.5798C132.688 11.4413 132.877 11.3614 133.075 11.3566H133.226C133.424 11.3614 133.613 11.4413 133.753 11.5798C133.893 11.7183 133.974 11.9048 133.979 12.1006V13.9342C134.531 12.0007 135.585 11.1089 137.291 11.1089C137.714 11.1094 138.135 11.1594 138.546 11.2577C138.717 11.3055 138.866 11.411 138.967 11.5558C139.068 11.7006 139.114 11.8756 139.098 12.0507V12.1995Z" fill="#00377A"/>
<path id="Path 69" d="M152.249 22.709H152.098C151.9 22.7043 151.711 22.6243 151.571 22.4858C151.43 22.3473 151.349 22.1609 151.345 21.965V20.7756C150.863 21.4745 150.21 22.0413 149.447 22.4228C148.683 22.8043 147.834 22.988 146.979 22.9567C146.19 22.9723 145.407 22.828 144.677 22.5326C143.948 22.2372 143.287 21.7971 142.737 21.2394C142.186 20.6817 141.758 20.0184 141.477 19.2905C141.197 18.5626 141.07 17.7856 141.106 17.0075C141.071 16.2321 141.198 15.4578 141.48 14.7331C141.761 14.0083 142.191 13.3486 142.742 12.7951C143.293 12.2416 143.954 11.8061 144.682 11.5159C145.411 11.2257 146.193 11.0869 146.979 11.1083C147.828 11.0787 148.672 11.258 149.434 11.63C150.196 12.002 150.852 12.555 151.345 13.2395V5.95396C151.349 5.75814 151.43 5.57167 151.571 5.43316C151.711 5.29466 151.9 5.21474 152.098 5.20996H152.249C152.447 5.21474 152.636 5.29466 152.776 5.43316C152.916 5.57167 152.997 5.75814 153.002 5.95396V22.0149C152.995 22.2056 152.912 22.3857 152.77 22.5158C152.629 22.6459 152.442 22.7154 152.249 22.709ZM147.029 21.3209C147.61 21.3502 148.191 21.2588 148.734 21.0524C149.278 20.8461 149.771 20.5295 150.182 20.123C150.594 19.7166 150.914 19.2293 151.123 18.6929C151.332 18.1564 151.425 17.5825 151.395 17.0085C151.404 16.4421 151.296 15.8799 151.079 15.3556C150.862 14.8313 150.54 14.3557 150.132 13.9575C149.724 13.5593 149.239 13.2466 148.706 13.0382C148.173 12.8299 147.602 12.7302 147.029 12.7451C146.458 12.7214 145.889 12.8159 145.357 13.0225C144.825 13.229 144.343 13.5431 143.941 13.9445C143.539 14.346 143.227 14.8259 143.024 15.3536C142.821 15.8812 142.733 16.4449 142.763 17.0085C142.74 17.5725 142.833 18.1353 143.038 18.6623C143.243 19.1893 143.555 19.6695 143.954 20.0733C144.353 20.4771 144.832 20.796 145.361 21.0106C145.889 21.2251 146.457 21.3307 147.028 21.3209H147.029Z" fill="#00377A"/>
<path id="Path 70" d="M40.8771 29.5H34.4524C33.9614 29.5005 33.4783 29.378 33.0483 29.144C32.6182 28.9099 32.2553 28.572 31.9934 28.1617L15.2797 1.73937C15.1674 1.55325 15.1309 1.332 15.1774 1.12031C15.224 0.908613 15.3501 0.722258 15.5304 0.598886C15.6748 0.542483 15.8274 0.509105 15.9824 0.5L19.2443 0.5C20.716 0.503669 22.1632 0.873389 23.4521 1.57505C24.7411 2.27671 25.8304 3.28771 26.6195 4.51478L41.5788 28.2606C41.6403 28.3511 41.6826 28.453 41.7033 28.56C41.7239 28.667 41.7225 28.7771 41.6991 28.8836C41.6757 28.99 41.6307 29.0908 41.567 29.1797C41.5032 29.2686 41.422 29.3439 41.3281 29.4011C41.1874 29.4688 41.0326 29.503 40.8761 29.5009L40.8771 29.5Z" fill="#00377A"/>
<path id="Path 71" d="M25.317 20.8742C24.4025 19.4368 23.1674 18.225 21.706 17.3315C20.2446 16.4379 18.5956 15.8864 16.8853 15.7189L14.0248 15.4712C13.7604 15.4461 13.5053 15.3616 13.2791 15.2241C13.0529 15.0867 12.8614 14.9 12.7195 14.6782L11.4141 12.596C11.2984 12.4215 11.1187 12.2981 10.9127 12.2519C10.7067 12.2057 10.4907 12.2403 10.31 12.3483C10.2032 12.4042 10.1159 12.4905 10.0592 12.596L2.12999 25.0886L0.121941 28.2115C0.00970982 28.3976 -0.0268223 28.6189 0.0197245 28.8306C0.0662714 29.0423 0.192428 29.2286 0.372709 29.352C0.434887 29.4024 0.508206 29.4376 0.586727 29.4548C0.665247 29.472 0.746761 29.4706 0.824664 29.4509H7.24929C7.7403 29.4514 8.22342 29.3289 8.65348 29.0949C9.08353 28.8608 9.44647 28.5229 9.70834 28.1126L14.5769 20.5276C16.5446 20.1392 18.5433 19.9236 20.5495 19.8834C22.2023 19.7506 23.8585 20.0948 25.317 20.8742Z" fill="#549344"/>
<path id="Path 72" d="M2.12999 25.0888L0.121941 28.2118C0.00970982 28.3979 -0.0268223 28.6191 0.0197245 28.8308C0.0662714 29.0425 0.192428 29.2289 0.372709 29.3522C0.508814 29.4321 0.667104 29.467 0.824664 29.4521H7.24929C7.7403 29.4526 8.22342 29.3301 8.65348 29.096C9.08353 28.862 9.44647 28.5241 9.70834 28.1138L14.5769 20.5278C10.2019 21.3606 5.99627 22.9017 2.12999 25.0888Z" fill="#336E27"/>
</g>
</g>
<defs>
<clipPath id="clip0_1540_949">
<rect width="153" height="29" fill="white" transform="translate(0 0.5)"/>
</clipPath>
</defs>
</svg>
